<?xml version="1.0"?>
<svg xmlns="http://www.w3.org/2000/svg" xmlns:xlink="http://www.w3.org/1999/xlink" xmlns:svgjs="http://svgjs.com/svgjs" version="1.1" width="512" height="512" x="0" y="0" viewBox="0 0 128 128" style="enable-background:new 0 0 512 512" xml:space="preserve" class=""><g><g xmlns="http://www.w3.org/2000/svg"><path d="M28.743,60.635H99.257a1.749,1.749,0,0,0,1.75-1.75V25.077a1.749,1.749,0,0,0-1.75-1.75H28.743a1.75,1.75,0,0,0-1.75,1.75V58.885A1.75,1.75,0,0,0,28.743,60.635Zm1.75-33.808H97.507V57.135H30.493Z" fill="#888888" data-original="#000000" style="" class=""/><path d="M52.671,43.475l-.007-.017-4.071-9.467a1.75,1.75,0,0,0-3.215,0l-4.073,9.47-.005.012-2.2,5.115a1.749,1.749,0,1,0,3.214,1.383L44.067,45.9H49.9l1.751,4.073a1.75,1.75,0,1,0,3.215-1.383Zm-7.1-1.077,1.413-3.286L48.4,42.4Z" fill="#888888" data-original="#000000" style="" class=""/><path d="M67.094,32.933H60.935a1.75,1.75,0,0,0-1.75,1.75v14.6a1.75,1.75,0,0,0,1.75,1.75h6.159a5.756,5.756,0,0,0,5.75-5.75v-6.6A5.756,5.756,0,0,0,67.094,32.933Zm2.25,12.346a2.253,2.253,0,0,1-2.25,2.25H62.685v-11.1h4.409a2.253,2.253,0,0,1,2.25,2.25Z" fill="#888888" data-original="#000000" style="" class=""/><path d="M87.292,36.433a1.75,1.75,0,0,0,0-3.5H78.678a1.749,1.749,0,0,0-1.75,1.75v7.3a1.749,1.749,0,0,0,1.75,1.75h6.864v3.8H78.678a1.75,1.75,0,0,0,0,3.5h8.614a1.749,1.749,0,0,0,1.75-1.75v-7.3a1.75,1.75,0,0,0-1.75-1.75H80.428v-3.8Z" fill="#888888" data-original="#000000" style="" class=""/><path d="M127.807,127.034a1.869,1.869,0,0,0,.193-.784V53.007a1.893,1.893,0,0,0-.638-1.351L109.007,36.542V17.077a1.749,1.749,0,0,0-1.75-1.75H83.241L65.112.4a1.747,1.747,0,0,0-2.224,0L44.759,15.327H20.744a1.749,1.749,0,0,0-1.75,1.75V36.542L.638,51.656A1.889,1.889,0,0,0,0,53.007V126.25A1.773,1.773,0,0,0,1.75,128h124.5A1.753,1.753,0,0,0,127.807,127.034ZM3.5,56.213,46.381,83.789,3.5,122.324ZM49.434,85.752l13.619,8.759a1.8,1.8,0,0,0,1.894,0l13.62-8.759L121.684,124.5H6.316Zm32.185-1.963,26.584-17.1,16.3-10.48v66.111Zm41.666-30.956-14.278,9.182V41.075ZM64,4.017l13.736,11.31H50.265ZM22.494,18.827h83.013V64.266L64,90.958,22.494,64.266Zm-3.5,43.188L4.715,52.833,18.994,41.075Z" fill="#888888" data-original="#000000" style="" class=""/><path d="M83.508,66.281H44.492a1.75,1.75,0,1,0,0,3.5H83.508a1.75,1.75,0,0,0,0-3.5Z" fill="#888888" data-original="#000000" style="" class=""/><path d="M71.094,75.469H56.906a1.75,1.75,0,0,0,0,3.5H71.094a1.75,1.75,0,0,0,0-3.5Z" fill="#888888" data-original="#000000" style="" class=""/></g></g></svg>
