<svg xmlns="http://www.w3.org/2000/svg" width="64" height="64" viewBox="0 0 64 64"><defs><style>.a{fill:#ff7900;}.b{fill:none;stroke:#fff;stroke-linecap:round;stroke-linejoin:round;stroke-width:2px;}.c{fill:#fff;}</style></defs><g transform="translate(-1823 -437)"><circle class="a" cx="32" cy="32" r="32" transform="translate(1823 437)"/><g transform="translate(-1 -2)"><path class="b" d="M23.678,1H4A3,3,0,0,0,1,4V17.7a3,3,0,0,0,3,3h6.052v5.755L15.807,20.7h7.871a3,3,0,0,0,3-3V4A3,3,0,0,0,23.678,1Z" transform="translate(1839 456)"/><path class="b" d="M18.007,25.094l5.755,5.755V25.094h6.053a3,3,0,0,0,3-3V8.4a3,3,0,0,0-3-3" transform="translate(1839 456)"/><path class="c" d="M8.841,10.969A1.667,1.667,0,1,1,7.174,9.3a1.668,1.668,0,0,1,1.667,1.667" transform="translate(1839 456)"/><path class="c" d="M15.506,10.969A1.666,1.666,0,1,1,13.839,9.3a1.667,1.667,0,0,1,1.667,1.667" transform="translate(1839 456)"/><path class="c" d="M22.171,10.969A1.667,1.667,0,1,1,20.5,9.3a1.667,1.667,0,0,1,1.667,1.667" transform="translate(1839 456)"/></g></g></svg>