<?xml version="1.0"?>
<svg xmlns="http://www.w3.org/2000/svg" xmlns:xlink="http://www.w3.org/1999/xlink" xmlns:svgjs="http://svgjs.com/svgjs" version="1.1" width="512" height="512" x="0" y="0" viewBox="0 0 512 512" style="enable-background:new 0 0 512 512" xml:space="preserve" class=""><g><linearGradient xmlns="http://www.w3.org/2000/svg" id="SVGID_1_" gradientUnits="userSpaceOnUse" x1="256" x2="256" y1="512" y2="0"><stop stop-opacity="1" stop-color="#ffffff" offset="1"/><stop stop-opacity="0.3" stop-color="#ffffff" offset="1"/></linearGradient><g xmlns="http://www.w3.org/2000/svg"><g><path d="m256 0c-140.957 0-256 115.048-256 256 0 140.957 115.049 256 256 256 140.959 0 256-115.049 256-256 0-140.959-115.049-256-256-256zm0 482c-124.617 0-226-101.383-226-226s101.383-226 226-226 226 101.383 226 226-101.383 226-226 226zm75-316c0-41.355-33.645-75-75-75s-75 33.645-75 75 33.645 75 75 75 75-33.645 75-75zm-75 45c-24.813 0-45-20.187-45-45s20.187-45 45-45 45 20.187 45 45-20.187 45-45 45zm0 30c-74.439 0-135 60.561-135 135v14.058c0 4.264 1.814 8.326 4.99 11.171 36.538 32.74 82.71 50.771 130.01 50.771 47.301 0 93.473-18.031 130.01-50.771 3.176-2.845 4.99-6.908 4.99-11.171v-14.058c0-74.439-60.561-135-135-135zm105 142.193c-30.172 25.072-67.211 38.807-105 38.807s-74.828-13.735-105-38.807v-7.193c0-57.897 47.103-105 105-105s105 47.103 105 105z" fill="url(#SVGID_1_)" data-original="url(#SVGID_1_)" style=""/></g></g></g></svg>
