<svg xmlns="http://www.w3.org/2000/svg" width="63" height="43" viewBox="0 0 63 43"><defs><style>.a{fill:#f0f0f0;}.b{opacity:0;}.c{fill:#fff;}.d{fill:#f26122;}.e{fill:#ea1d25;}.f{fill:#f69e1e;}</style></defs><g transform="translate(0.179 0.444)"><rect class="a" width="63" height="43" rx="4" transform="translate(-0.179 -0.444)"/><g transform="translate(5.816 4.502)"><g class="b" transform="translate(0 0)"><rect class="c" width="51.149" height="33.826"/></g><rect class="d" width="13.491" height="22.04" transform="translate(18.829 5.893)"/><path class="e" d="M17.4,14.02A13.98,13.98,0,0,1,22.685,3a14.019,14.019,0,1,0,0,22.04A13.98,13.98,0,0,1,17.4,14.02Z" transform="translate(2.882 2.893)"/><path class="f" d="M.661.544H.568V0H.7L.872.383,1.031,0h.132V.541H1.07V.132L.925.489H.819L.661.132v.41Zm-.4,0H.186V.093H0V0H.463V.093h-.2V.541Z" transform="translate(46.63 25.052)"/><path class="f" d="M22.674,14.01A14.019,14.019,0,0,1,0,25.03,14.019,14.019,0,0,0,2.352,5.356,13.742,13.742,0,0,0,0,2.991,14.019,14.019,0,0,1,22.674,14.01Z" transform="translate(25.568 2.903)"/></g></g></svg>