<svg xmlns="http://www.w3.org/2000/svg" width="64" height="43" viewBox="0 0 64 43"><defs><style>.a{fill:#f0f0f0;}.b{fill:#253d80;}.c{fill:#189bd7;}.d{fill:#242e65;}</style></defs><g transform="translate(0.345 0.444)"><path class="a" d="M4,0H60a4,4,0,0,1,4,4V39a4,4,0,0,1-4,4H4a4,4,0,0,1-4-4V4A4,4,0,0,1,4,0Z" transform="translate(-0.345 -0.444)"/><g transform="translate(20.868 8.202)"><path class="b" d="M5.431,24.63l.462-2.907H0L3.383.238A.277.277,0,0,1,3.475.066.317.317,0,0,1,3.66,0h8.205c2.735,0,4.611.568,5.6,1.691a3.634,3.634,0,0,1,.885,1.678,5.84,5.84,0,0,1,0,2.312v.661l.462.264a3.29,3.29,0,0,1,.938.7,3.422,3.422,0,0,1,.753,1.7,7.571,7.571,0,0,1-.106,2.458,8.562,8.562,0,0,1-1.017,2.788,5.682,5.682,0,0,1-1.6,1.757,6.686,6.686,0,0,1-2.154.965,10.452,10.452,0,0,1-2.643.317h-.647a1.942,1.942,0,0,0-1.242.449,1.876,1.876,0,0,0-.647,1.163v.264L9.646,24.3v.2a.2.2,0,0,1,0,.106H9.566Z" transform="translate(0.933 0.899)"/><path class="c" d="M14.766,0l-.079.489C13.6,6.038,9.89,7.968,5.16,7.968h-2.4a1.176,1.176,0,0,0-1.163.991L.364,16.781.007,19a.621.621,0,0,0,.608.714H4.9a1.031,1.031,0,0,0,1.017-.872v-.211l.806-5.114V13.24a1.017,1.017,0,0,1,1-.872h.7c4.136,0,7.386-1.678,8.324-6.607A5.6,5.6,0,0,0,15.9.832,4.268,4.268,0,0,0,14.766,0Z" transform="translate(5.418 6.712)"/><path class="d" d="M11.945.384l-.5-.132L10.888.146A13.293,13.293,0,0,0,8.774,0H2.326a.951.951,0,0,0-.436.092A1,1,0,0,0,1.321.86L0,9.541v.251A1.176,1.176,0,0,1,1.163,8.8h2.4c4.73,0,8.443-1.929,9.527-7.479l.079-.489a5.92,5.92,0,0,0-.885-.37Z" transform="translate(7.103 5.879)"/><path class="b" d="M8.425,6.739a1,1,0,0,1,.568-.766.951.951,0,0,1,.436-.092h6.448a13.293,13.293,0,0,1,2.114.145l.555.106.5.132.251.079a5.919,5.919,0,0,1,.885.37A5.285,5.285,0,0,0,19.127,2c-1.321-1.4-3.488-2-6.316-2H4.593A1.176,1.176,0,0,0,3.43.991L.008,22.674a.714.714,0,0,0,.7.819H5.782L7.1,15.42Z" transform="translate(0 0)"/></g></g></svg>