<svg xmlns="http://www.w3.org/2000/svg" width="64" height="43" viewBox="0 0 64 43"><defs><style>.a{fill:#f0f0f0;}.b{fill:#2a2a6c;}</style></defs><g transform="translate(0 0.444)"><path class="a" d="M4,0H60a4,4,0,0,1,4,4V39a4,4,0,0,1-4,4H4a4,4,0,0,1-4-4V4A4,4,0,0,1,4,0Z" transform="translate(0 -0.444)"/><path class="b" d="M22.481,12.58a9.417,9.417,0,0,1-3.44-.648l.568-2.642a6.632,6.632,0,0,0,3.14.794h.084c.941-.013,1.89-.39,1.89-1.2.013-.517-.431-.929-1.639-1.52-1.185-.58-2.761-1.554-2.761-3.317C20.322,1.663,22.5,0,25.607,0a8.475,8.475,0,0,1,2.96.542l-.554,2.642a5.962,5.962,0,0,0-2.537-.571c-.194,0-.39.01-.582.029-.913.121-1.321.6-1.321,1.018,0,.512.655.855,1.483,1.289C26.371,5.638,28.007,6.495,28,8.51l.067-.106c-.013,2.537-2.177,4.175-5.51,4.175Zm8.756-.105H27.907L32.651,1.15a1.436,1.436,0,0,1,1.321-.9h2.642l2.562,12.221-2.932,0-.383-1.823H31.884l-.647,1.823Zm3.145-8.92L32.716,8.139h2.629Zm-17.6,8.88H13.609L16.253.212h3.17L16.781,12.433Zm-6.937-.04H6.4L3.872,2.629a1.329,1.329,0,0,0-.754-1.07A13.1,13.1,0,0,0,0,.528L.08.171H5.457A1.477,1.477,0,0,1,6.923,1.414L8.245,8.483,11.535.171h3.436L9.844,12.393Z" transform="translate(12.103 15.112)"/></g></svg>